<?xml version="1.0" encoding="UTF-8" standalone="no"?><!DOCTYPE svg PUBLIC "-//W3C//DTD SVG 1.1//EN" "http://www.w3.org/Graphics/SVG/1.1/DTD/svg11.dtd"><svg width="100%" height="100%" viewBox="0 0 2160 1440" version="1.1" xmlns="http://www.w3.org/2000/svg" xmlns:xlink="http://www.w3.org/1999/xlink" xml:space="preserve" xmlns:serif="http://www.serif.com/" style="fill-rule:evenodd;clip-rule:evenodd;stroke-miterlimit:10;"><g id="图层-2" serif:id="图层 2"><rect x="0" y="0" width="2160" height="1440" style="fill:url(#_Linear1);"/><g><path d="M911.846,725.174c2.255,-8.061 -2.459,-16.438 -10.521,-18.693l-69.082,-19.323c-8.062,-2.255 -16.438,2.459 -18.693,10.521l-8.172,29.214c-2.255,8.062 2.46,16.438 10.522,18.693l69.082,19.324c8.062,2.255 16.438,-2.46 18.693,-10.521l8.171,-29.215Z" style="fill:#fff;"/><g><path d="M831.082,708.432c8.762,2.451 13.886,11.554 11.435,20.317c-2.451,8.762 -11.554,13.886 -20.316,11.435c-8.762,-2.451 -13.886,-11.555 -11.435,-20.317c2.45,-8.762 11.554,-13.886 20.316,-11.435Z" style="fill:#c1c1c2;"/><clipPath id="_clip2"><path d="M831.082,708.432c8.762,2.451 13.886,11.554 11.435,20.317c-2.451,8.762 -11.554,13.886 -20.316,11.435c-8.762,-2.451 -13.886,-11.555 -11.435,-20.317c2.45,-8.762 11.554,-13.886 20.316,-11.435Z"/></clipPath><g clip-path="url(#_clip2)"><path d="M817.024,702.482c8.005,2.239 13.002,9.425 11.153,16.036c-1.849,6.611 -9.85,10.161 -17.854,7.922c-8.005,-2.239 -13.003,-9.425 -11.153,-16.036c1.849,-6.611 9.849,-10.161 17.854,-7.922Z" style="fill:#757575;"/><path d="M844.992,719.9c2.352,0.658 3.707,3.175 3.024,5.616c-0.683,2.442 -3.147,3.89 -5.499,3.233c-2.351,-0.658 -3.706,-3.175 -3.023,-5.616c0.683,-2.442 3.147,-3.89 5.498,-3.233Z" style="fill:#fff;"/></g><path d="M831.082,708.432c8.762,2.451 13.886,11.554 11.435,20.317c-2.451,8.762 -11.554,13.886 -20.316,11.435c-8.762,-2.451 -13.886,-11.555 -11.435,-20.317c2.45,-8.762 11.554,-13.886 20.316,-11.435Z" style="fill:#c1c1c2;"/><clipPath id="_clip3"><path d="M831.082,708.432c8.762,2.451 13.886,11.554 11.435,20.317c-2.451,8.762 -11.554,13.886 -20.316,11.435c-8.762,-2.451 -13.886,-11.555 -11.435,-20.317c2.45,-8.762 11.554,-13.886 20.316,-11.435Z"/></clipPath><g clip-path="url(#_clip3)"><path d="M817.024,702.482c8.005,2.239 13.002,9.425 11.153,16.036c-1.849,6.611 -9.85,10.161 -17.854,7.922c-8.005,-2.239 -13.003,-9.425 -11.153,-16.036c1.849,-6.611 9.849,-10.161 17.854,-7.922Z" style="fill:#757575;"/><path d="M844.992,719.9c2.352,0.658 3.707,3.175 3.024,5.616c-0.683,2.442 -3.147,3.89 -5.499,3.233c-2.351,-0.658 -3.706,-3.175 -3.023,-5.616c0.683,-2.442 3.147,-3.89 5.498,-3.233Z" style="fill:#fff;"/></g><path d="M830.77,719.666c0.208,-0.746 -0.228,-1.521 -0.973,-1.729l-2.703,-0.756c-0.746,-0.209 -1.521,0.227 -1.729,0.973l-3.601,12.873c-0.209,0.746 0.228,1.521 0.973,1.729l2.703,0.756c0.746,0.209 1.52,-0.227 1.729,-0.973l3.601,-12.873Z" style="fill:#5683c5;"/></g><g><path d="M878.895,721.806c8.762,2.451 13.886,11.555 11.435,20.317c-2.45,8.762 -11.554,13.886 -20.316,11.435c-8.762,-2.451 -13.886,-11.555 -11.435,-20.317c2.451,-8.762 11.554,-13.886 20.316,-11.435Z" style="fill:#c1c1c2;"/><clipPath id="_clip4"><path d="M878.895,721.806c8.762,2.451 13.886,11.555 11.435,20.317c-2.45,8.762 -11.554,13.886 -20.316,11.435c-8.762,-2.451 -13.886,-11.555 -11.435,-20.317c2.451,-8.762 11.554,-13.886 20.316,-11.435Z"/></clipPath><g clip-path="url(#_clip4)"><path d="M864.837,715.856c8.005,2.24 13.002,9.425 11.153,16.036c-1.849,6.611 -9.849,10.161 -17.854,7.922c-8.005,-2.239 -13.002,-9.424 -11.153,-16.036c1.849,-6.611 9.849,-10.161 17.854,-7.922Z" style="fill:#757575;"/><path d="M892.805,733.275c2.352,0.657 3.707,3.174 3.024,5.616c-0.683,2.441 -3.147,3.89 -5.499,3.232c-2.351,-0.658 -3.706,-3.174 -3.023,-5.616c0.683,-2.442 3.147,-3.89 5.498,-3.232Z" style="fill:#fff;"/></g><path d="M878.895,721.806c8.762,2.451 13.886,11.555 11.435,20.317c-2.45,8.762 -11.554,13.886 -20.316,11.435c-8.762,-2.451 -13.886,-11.555 -11.435,-20.317c2.451,-8.762 11.554,-13.886 20.316,-11.435Z" style="fill:#c1c1c2;"/><clipPath id="_clip5"><path d="M878.895,721.806c8.762,2.451 13.886,11.555 11.435,20.317c-2.45,8.762 -11.554,13.886 -20.316,11.435c-8.762,-2.451 -13.886,-11.555 -11.435,-20.317c2.451,-8.762 11.554,-13.886 20.316,-11.435Z"/></clipPath><g clip-path="url(#_clip5)"><path d="M864.837,715.856c8.005,2.24 13.002,9.425 11.153,16.036c-1.849,6.611 -9.849,10.161 -17.854,7.922c-8.005,-2.239 -13.002,-9.424 -11.153,-16.036c1.849,-6.611 9.849,-10.161 17.854,-7.922Z" style="fill:#757575;"/><path d="M892.805,733.275c2.352,0.657 3.707,3.174 3.024,5.616c-0.683,2.441 -3.147,3.89 -5.499,3.232c-2.351,-0.658 -3.706,-3.174 -3.023,-5.616c0.683,-2.442 3.147,-3.89 5.498,-3.232Z" style="fill:#fff;"/></g><path d="M878.583,733.04c0.209,-0.746 -0.228,-1.521 -0.973,-1.729l-2.703,-0.756c-0.746,-0.209 -1.52,0.227 -1.729,0.973l-3.601,12.873c-0.208,0.746 0.228,1.521 0.973,1.729l2.703,0.756c0.746,0.209 1.521,-0.227 1.729,-0.973l3.601,-12.873Z" style="fill:#404041;"/></g><path d="M847.771,674.617c5.292,1.48 10.219,24.666 10.219,24.666l-31.752,-8.882c-0,0 16.241,-17.265 21.533,-15.784Z" style="fill:#fff;"/><path d="M846.669,678.557c2.276,0.637 4.396,10.611 4.396,10.611l-13.659,-3.82c-0,-0 6.986,-7.427 9.263,-6.791Z" style="fill:#ffcc05;"/><path d="M889.287,686.342c5.292,1.48 10.218,24.666 10.218,24.666l-31.752,-8.882c0,0 16.242,-17.265 21.534,-15.784Z" style="fill:#fff;"/><path d="M888.184,690.282c2.277,0.637 4.396,10.611 4.396,10.611l-13.659,-3.821c0,0 6.987,-7.427 9.263,-6.79Z" style="fill:#5683c5;"/><path d="M860.106,703.754l-10.783,4.483l1.144,2.75l10.782,-4.482l-1.143,-2.751Z" style="fill:#5683c5;"/><path d="M858.279,710.283l-10.782,4.482l1.888,4.543l10.783,-4.482l-1.889,-4.543Z" style="fill:#5683c5;"/><path d="M887.247,753.148l5.391,9.851l-15.111,-4.227l9.72,-5.624Z" style="fill:#d3848b;"/><path d="M844.388,738.987c0.621,0.174 1.669,2.421 1.256,2.697c-0.412,0.275 -3.52,-0.594 -3.729,-1.044c-0.21,-0.449 1.851,-1.827 2.473,-1.653Z" style="fill:#868276;"/></g><rect x="0" y="0" width="2160" height="1440" style="fill:none;stroke:#231815;stroke-width:1px;"/><path d="M978.653,821.242c-5.561,0 -10.925,0.83 -15.987,2.357c-9.812,-36.639 -43.239,-63.621 -82.973,-63.621c-2.983,0 -5.929,0.155 -8.833,0.451c-8.183,-20.286 -28.042,-34.609 -51.259,-34.609c-5.56,0 -10.925,0.83 -15.987,2.358c-9.812,-36.64 -43.239,-63.622 -82.973,-63.622c-31.24,0 -58.582,16.679 -73.614,41.616c-0.097,-0.001 -0.192,-0.008 -0.289,-0.008c-13.135,0 -25.127,4.869 -34.294,12.886c-5.636,-1.753 -11.628,-2.698 -17.841,-2.698c-11.216,0 -21.707,3.086 -30.687,8.443c-15.432,-22.866 -41.574,-37.907 -71.237,-37.907c-31.239,0 -58.582,16.678 -73.614,41.616c-0.097,-0.001 -0.191,-0.008 -0.288,-0.008c-13.136,0 -25.126,4.868 -34.294,12.886c-5.637,-1.753 -11.629,-2.698 -17.842,-2.698c-33.135,0 -59.997,26.862 -59.997,59.997c0,1.592 0.076,3.165 0.198,4.725c-25.637,5.09 -45.389,26.51 -47.96,52.967c-16.049,10.768 -26.615,29.076 -26.615,49.855c0,30.652 22.986,55.931 52.66,59.55l0,0.447l414.84,0l0,-0.349c2.023,0.224 4.076,0.349 6.158,0.349c23.159,0 42.978,-14.25 51.199,-34.456l215.371,0l0,-0.349c2.022,0.224 4.075,0.349 6.158,0.349c30.521,0 55.264,-24.742 55.264,-55.263c0,-30.522 -24.743,-55.264 -55.264,-55.264" style="fill:#eee;fill-rule:nonzero;"/><path d="M1833.95,1024.97c183.489,-70.525 255.903,-103.474 272.728,-116.883c3.244,-2.587 17.728,-15.052 35.064,-12.987c8.082,0.963 14.32,4.79 18.26,7.793l0,120.779c-108.684,0.433 -217.368,0.865 -326.052,1.298" style="fill:#3c9f4a;fill-rule:nonzero;"/><path d="M1737.84,930.169c76.551,4.397 128.337,-3.279 162.338,-11.688c24.666,-6.1 49.807,-10.499 74.026,-18.182c33.656,-10.677 48.622,-18.889 70.13,-15.585c19.028,2.924 23.588,13.481 49.351,28.572c23.803,13.943 46.948,21.579 66.311,25.974l-0,63.637l-416.979,-0c-1.726,-24.244 -3.451,-48.486 -5.177,-72.728" style="fill:#53aa5d;fill-rule:nonzero;"/><path d="M457,763c-190.054,8.363 -347.231,32.741 -457,54l0,623l2160,0l0,-467c-412.796,-78.854 -762.026,-131.903 -1031,-168c-198.128,-26.589 -359.358,-44.873 -543.759,-44.872c-41.35,0.001 -83.886,0.92 -128.241,2.872Z" style="fill:url(#_Linear6);fill-rule:nonzero;"/><g opacity="0.8"><path d="M1794.88,749.782c2.872,-3.886 13.526,7.087 35.5,7c21.507,-0.085 26.526,-10.656 52.5,-11c15.706,-0.208 24.022,3.523 27,5c0.972,0.481 23.328,11.86 21,25c-1.271,7.17 -9.452,12.38 -16,14c-9.136,2.261 -12.729,-3.05 -25.5,-2.5c-7.898,0.34 -9.925,2.518 -18.5,4.5c-0,0 -17.189,3.974 -34,0c-27.103,-6.406 -46.256,-36.242 -42,-42" style="fill:#fff;fill-rule:nonzero;"/></g><g opacity="0.8"><path d="M677,504.31c-2.661,6.755 0.625,12.99 1.333,14.333c0.49,0.929 5.491,10.444 11.667,9c4.351,-1.017 7.814,-6.254 7,-12.333c0.699,0.917 4.598,5.886 9,5.333c5.835,-0.732 9.756,-10.816 7.333,-17.666c-2.919,-8.255 -14.673,-10.749 -22.666,-9c-1.606,0.351 -10.501,2.296 -13.667,10.333" style="fill:#fff;fill-rule:nonzero;"/></g><g opacity="0.8"><path d="M1051.45,754.998c-6.53,-2.455 -33.012,-12.409 -35.065,-32.468c-0.8,-7.817 2.195,-16.326 7.792,-22.078c13.978,-14.362 40.8,-8.048 58.441,-3.896c18.641,4.388 29.364,10.211 44.157,16.883c16.844,7.599 41.644,17.507 74.025,25.974c-17.315,-0.865 -34.632,-1.731 -51.947,-2.597c4.298,4.494 13.314,12.652 27.272,16.883c8.294,2.515 15.625,2.821 20.78,2.598c-42.993,-2.015 -75.763,0.081 -98.702,2.597c-10.583,1.161 -27.512,3.336 -46.753,-3.896" style="fill:#fff;fill-rule:nonzero;"/></g><g opacity="0.8"><path d="M804.078,469.13c-2.461,-4.865 7.683,-18.413 18.182,-19.48c12.137,-1.235 26.467,14.034 33.766,38.96c-7.218,-6.875 -18.086,-14.855 -32.468,-16.883c-10.369,-1.462 -17.736,0.851 -19.48,-2.597" style="fill:#fff;fill-rule:nonzero;"/></g><g opacity="0.8"><path d="M2016.98,359.721c-2.462,-4.865 7.683,-18.413 18.182,-19.48c12.136,-1.235 26.466,14.034 33.766,38.96c-7.218,-6.875 -18.086,-14.855 -32.468,-16.882c-10.37,-1.463 -17.736,0.85 -19.48,-2.598" style="fill:#fff;fill-rule:nonzero;"/></g><g opacity="0.8"><path d="M859.922,602.896c0.588,-1.525 3.813,-9.23 11.688,-10.39c4.499,-0.662 9.889,0.904 12.988,5.195c3.779,5.235 2.208,11.833 -0,15.585c-4.414,7.497 -15.964,11.422 -22.078,6.493c-4.811,-3.878 -4.537,-11.85 -2.598,-16.883" style="fill:#fff;fill-rule:nonzero;"/></g><g opacity="0.8"><path d="M1933.51,785.186c-1.913,-0 -3.758,0.338 -5.499,0.962c-3.374,-14.957 -14.871,-25.971 -28.537,-25.971c-10.745,-0 -20.149,6.808 -25.318,16.987c-0.034,0 -0.067,-0.001 -0.1,-0.001c-4.518,-0 -8.642,1.986 -11.795,5.259c-1.939,-0.716 -3.999,-1.101 -6.137,-1.101c-11.396,0 -20.635,10.966 -20.635,24.492c-0,12.514 7.906,22.834 18.112,24.311l-0,0.183l77.791,-0l-0,-0.144c0.695,0.091 1.401,0.144 2.118,0.144c10.497,-0 19.007,-10.101 19.007,-22.561c-0,-12.459 -8.51,-22.56 -19.007,-22.56" style="fill:#eee;fill-rule:nonzero;"/></g><g opacity="0.8"><path d="M1876.82,796.308c2.344,-0 4.605,0.385 6.739,1.094c4.137,-16.997 18.231,-29.514 34.983,-29.514c13.171,-0 24.698,7.737 31.036,19.306c0.04,-0.001 0.08,-0.004 0.121,-0.004c5.538,-0 10.594,2.259 14.459,5.977c2.376,-0.813 4.902,-1.251 7.521,-1.251c13.971,-0 25.295,12.461 25.295,27.832c0,14.219 -9.69,25.947 -22.201,27.625l0,0.207l-95.357,-0l0,-0.162c-0.853,0.105 -1.718,0.162 -2.596,0.162c-12.868,-0 -23.3,-11.477 -23.3,-25.635c0,-14.159 10.432,-25.637 23.3,-25.637" style="fill:#fff;fill-rule:nonzero;"/></g><g opacity="0.31"><path d="M11,1440c33.606,-85.895 97.542,-212.515 222,-311c306.422,-242.476 782.568,-158.404 1136,-96c114.78,20.267 354.949,70.653 702,94c38.141,2.565 69.563,4.267 90.293,5.308c1.236,102.897 2.472,205.795 3.707,308.692c-718,-0.333 -1436,-0.667 -2154,-1Z" style="fill:url(#_Linear7);fill-rule:nonzero;"/></g><g opacity="0.31"><path d="M615,1440.38c24.183,-53.597 70.19,-132.605 159.75,-194.058c220.498,-151.299 563.129,-98.841 817.455,-59.902c55.645,8.52 152.24,25.569 285.717,40.243c105.289,11.575 193.549,16.898 219.436,18.411c26.404,1.544 48.671,2.604 64.975,3.312c-1.111,63.984 -2.222,127.968 -3.333,191.951c-514.667,0.015 -1029.33,0.028 -1544,0.043Z" style="fill:url(#_Linear8);fill-rule:nonzero;"/></g><g opacity="0.8"><path d="M1274.29,355.766c-3.164,6.742 0.743,12.965 1.585,14.305c0.582,0.927 6.526,10.424 13.869,8.983c5.172,-1.016 9.29,-6.242 8.321,-12.309c0.831,0.914 5.467,5.874 10.7,5.322c6.937,-0.731 11.598,-10.795 8.718,-17.632c-3.47,-8.238 -17.443,-10.727 -26.946,-8.982c-1.91,0.351 -12.484,2.292 -16.247,10.313" style="fill:#fff;fill-rule:nonzero;"/></g></g><defs><linearGradient id="_Linear1" x1="0" y1="0" x2="1" y2="0" gradientUnits="userSpaceOnUse" gradientTransform="matrix(0,1440,-1440,0,1080,0)"><stop offset="0" style="stop-color:#83a1f2;stop-opacity:1"/><stop offset="1" style="stop-color:#2082fa;stop-opacity:1"/></linearGradient><linearGradient id="_Linear6" x1="0" y1="0" x2="1" y2="0" gradientUnits="userSpaceOnUse" gradientTransform="matrix(0,-679.872,679.872,-0,1080,1440)"><stop offset="0" style="stop-color:#3dcbbd;stop-opacity:1"/><stop offset="0.49" style="stop-color:#26d574;stop-opacity:1"/><stop offset="1" style="stop-color:#26d574;stop-opacity:1"/></linearGradient><linearGradient id="_Linear7" x1="0" y1="0" x2="1" y2="0" gradientUnits="userSpaceOnUse" gradientTransform="matrix(2154,0,0,2154,11,1203.81)"><stop offset="0" style="stop-color:#32a69a;stop-opacity:1"/><stop offset="0.49" style="stop-color:#26d574;stop-opacity:1"/><stop offset="1" style="stop-color:#167a43;stop-opacity:1"/></linearGradient><linearGradient id="_Linear8" x1="0" y1="0" x2="1" y2="0" gradientUnits="userSpaceOnUse" gradientTransform="matrix(1547.33,0,0,1547.33,615,1292.69)"><stop offset="0" style="stop-color:#26d574;stop-opacity:1"/><stop offset="0.56" style="stop-color:#1b8351;stop-opacity:1"/><stop offset="1" style="stop-color:#3dcbbd;stop-opacity:1"/></linearGradient></defs></svg>