<?xml version="1.0" encoding="UTF-8" standalone="no"?>
<!DOCTYPE svg PUBLIC "-//W3C//DTD SVG 1.1//EN" "http://www.w3.org/Graphics/SVG/1.1/DTD/svg11.dtd">
<svg width="100%" height="100%" viewBox="0 0 100 100" version="1.1" xmlns="http://www.w3.org/2000/svg" xmlns:xlink="http://www.w3.org/1999/xlink" xml:space="preserve" xmlns:serif="http://www.serif.com/" style="fill-rule:evenodd;clip-rule:evenodd;stroke-linejoin:round;stroke-miterlimit:2;">
    <g transform="matrix(2.89855,0,0,2.89855,-1594.2,-799.479)">
        <g>
            <g transform="matrix(0.775281,0,0,0.775281,123.596,64.9438)">
                <path d="M560.5,291.625C560.5,290.176 559.324,289 557.875,289L552.625,289C551.176,289 550,290.176 550,291.625L550,296.875C550,298.324 551.176,299.5 552.625,299.5L557.875,299.5C559.324,299.5 560.5,298.324 560.5,296.875L560.5,291.625Z" style="fill:white;"/>
            </g>
            <g transform="matrix(0.775281,0,0,0.775281,136.775,64.9438)">
                <path d="M560.5,291.625C560.5,290.176 559.324,289 557.875,289L552.625,289C551.176,289 550,290.176 550,291.625L550,296.875C550,298.324 551.176,299.5 552.625,299.5L557.875,299.5C559.324,299.5 560.5,298.324 560.5,296.875L560.5,291.625Z" style="fill:white;"/>
            </g>
            <g transform="matrix(0.775281,0,0,0.775281,149.955,64.9438)">
                <path d="M560.5,291.625C560.5,290.176 559.324,289 557.875,289L552.625,289C551.176,289 550,290.176 550,291.625L550,296.875C550,298.324 551.176,299.5 552.625,299.5L557.875,299.5C559.324,299.5 560.5,298.324 560.5,296.875L560.5,291.625Z" style="fill:white;"/>
            </g>
        </g>
    </g>
</svg>
