<?xml version="1.0" encoding="UTF-8" standalone="no"?><!DOCTYPE svg PUBLIC "-//W3C//DTD SVG 1.1//EN" "http://www.w3.org/Graphics/SVG/1.1/DTD/svg11.dtd"><svg width="100%" height="100%" viewBox="0 0 417 417" version="1.1" xmlns="http://www.w3.org/2000/svg" xmlns:xlink="http://www.w3.org/1999/xlink" xml:space="preserve" xmlns:serif="http://www.serif.com/" style="fill-rule:evenodd;clip-rule:evenodd;stroke-linejoin:round;stroke-miterlimit:2;"><path d="M416.667,104.167c-0,-57.491 -46.676,-104.167 -104.167,-104.167l-208.333,0c-57.491,0 -104.167,46.676 -104.167,104.167l0,208.333c0,57.491 46.676,104.167 104.167,104.167l208.333,-0c57.491,-0 104.167,-46.676 104.167,-104.167l-0,-208.333Z" style="fill:#fff;fill-opacity:0.52;"/><g id="图层1"><path d="M387.476,208.333c-0,-33.816 -27.455,-61.271 -61.272,-61.271l-235.742,0c-33.816,0 -61.271,27.455 -61.271,61.271c0,33.817 27.455,61.271 61.271,61.271l235.742,0c33.817,0 61.272,-27.454 61.272,-61.271Z" style="fill:#fff;fill-opacity:0.9;"/><path d="M208.333,387.476c33.817,-0 61.271,-27.455 61.271,-61.272l0,-235.742c0,-33.816 -27.454,-61.271 -61.271,-61.271c-33.816,0 -61.271,27.455 -61.271,61.271l0,235.742c0,33.817 27.455,61.272 61.271,61.272Z" style="fill:#fff;fill-opacity:0.9;"/></g></svg>