<?xml version="1.0" encoding="UTF-8" standalone="no"?>
<!DOCTYPE svg PUBLIC "-//W3C//DTD SVG 1.1//EN" "http://www.w3.org/Graphics/SVG/1.1/DTD/svg11.dtd">
<svg width="100%" height="100%" viewBox="0 0 304 276" version="1.1" xmlns="http://www.w3.org/2000/svg" xmlns:xlink="http://www.w3.org/1999/xlink" xml:space="preserve" xmlns:serif="http://www.serif.com/" style="fill-rule:evenodd;clip-rule:evenodd;stroke-linecap:round;stroke-linejoin:round;stroke-miterlimit:1.5;">
    <g transform="matrix(1.44982,0,0,1.30515,-330.55,-307.451)">
        <ellipse cx="305.32" cy="420.45" rx="18.427" ry="20.025" style="fill:rgb(246,246,246);"/>
    </g>
    <g transform="matrix(1,0,0,1.06826,69.4316,-290.844)">
        <path d="M95.958,276.987C95.958,276.987 90.287,272.201 82.539,272.259C78.414,272.29 75.393,276.173 76.344,279.041C87.972,314.095 182.946,365.987 174.868,411.308C168.54,446.813 136.314,483.097 76.344,520.218C76.344,520.218 81.268,527.065 84.015,527.065C86.763,527.065 92.831,520.218 92.831,520.218C147.697,484.126 178.267,447.646 183.25,410.756C189.104,367.427 162.788,321.48 95.958,276.987Z" style="fill:rgb(117,117,117);"/>
    </g>
    <g transform="matrix(1.44982,0,0,1.30515,-255.09,-307.451)">
        <ellipse cx="305.32" cy="420.45" rx="18.427" ry="20.025" style="fill:rgb(246,246,246);"/>
    </g>
    <g transform="matrix(0.831116,0,0,1,-170.75,-205.052)">
        <path d="M386.171,348.397C418.153,348.397 455.979,390.818 455.979,434.493C455.979,478.169 418.153,481.002 386.171,481.002C354.189,481.002 314.579,475.704 314.579,432.028C314.579,388.353 354.189,348.397 386.171,348.397Z" style="fill:white;"/>
    </g>
    <g transform="matrix(0.96059,0,0,0.909534,-265.596,-147.214)">
        <g transform="matrix(2.63479,0,0,2.22427,295.258,122.822)">
            <path d="M97.136,66.601C97.136,48.168 85.174,33.203 70.44,33.203C70.44,33.203 62.795,29.891 51.931,29.781C41.242,29.673 34.008,33.203 34.008,33.203C19.274,33.203 7.312,48.168 7.312,66.601C7.312,85.035 19.274,100 34.008,100L70.44,100C85.174,100 97.136,85.035 97.136,66.601Z" style="fill:rgb(251,255,252);"/>
        </g>
        <g transform="matrix(2.71363,0,0,2.71363,309.32,113.087)">
            <g transform="matrix(1,0,0,1,-2.87863,-6.22263)">
                <circle cx="27.865" cy="67.142" r="15.131" style="fill:rgb(193,193,194);"/>
                <clipPath id="_clip1">
                    <circle cx="27.865" cy="67.142" r="15.131"/>
                </clipPath>
                <g clip-path="url(#_clip1)">
                    <g transform="matrix(1.36382,0,0,1.11163,-9.69783,2.16712)">
                        <ellipse cx="17.352" cy="53.504" rx="10.136" ry="10.27" style="fill:rgb(117,117,117);"/>
                    </g>
                    <g transform="matrix(0.400671,0,0,0.410552,36.0437,40.9589)">
                        <ellipse cx="17.352" cy="53.504" rx="10.136" ry="10.27" style="fill:white;"/>
                    </g>
                </g>
            </g>
            <g transform="matrix(1,0,0,1,-2.87863,-6.22263)">
                <circle cx="27.865" cy="67.142" r="15.131" style="fill:rgb(193,193,194);"/>
                <clipPath id="_clip2">
                    <circle cx="27.865" cy="67.142" r="15.131"/>
                </clipPath>
                <g clip-path="url(#_clip2)">
                    <g transform="matrix(1.36382,0,0,1.11163,-9.69783,2.16712)">
                        <ellipse cx="17.352" cy="53.504" rx="10.136" ry="10.27" style="fill:rgb(117,117,117);"/>
                    </g>
                    <g transform="matrix(0.400671,0,0,0.410552,36.0437,40.9589)">
                        <ellipse cx="17.352" cy="53.504" rx="10.136" ry="10.27" style="fill:white;"/>
                    </g>
                </g>
            </g>
            <g transform="matrix(1,0,0,0.150076,0,52.5892)">
                <path d="M27.488,58.219C27.488,56.17 27.252,54.507 26.961,54.507L22.864,54.507C22.573,54.507 22.336,56.17 22.336,58.219L22.336,65.641C22.336,67.689 22.573,69.352 22.864,69.352L26.961,69.352C27.252,69.352 27.488,67.689 27.488,65.641L27.488,58.219Z" style="fill:rgb(86,131,197);"/>
            </g>
        </g>
        <g transform="matrix(2.71363,0,0,2.71363,421.339,112.681)">
            <g transform="matrix(1,0,0,1,-2.87863,-6.22263)">
                <circle cx="27.865" cy="67.142" r="15.131" style="fill:rgb(193,193,194);"/>
                <clipPath id="_clip3">
                    <circle cx="27.865" cy="67.142" r="15.131"/>
                </clipPath>
                <g clip-path="url(#_clip3)">
                    <g transform="matrix(1.36382,0,0,1.11163,-9.69783,2.16712)">
                        <ellipse cx="17.352" cy="53.504" rx="10.136" ry="10.27" style="fill:rgb(117,117,117);"/>
                    </g>
                    <g transform="matrix(0.400671,0,0,0.410552,36.0437,40.9589)">
                        <ellipse cx="17.352" cy="53.504" rx="10.136" ry="10.27" style="fill:white;"/>
                    </g>
                </g>
            </g>
            <g transform="matrix(1,0,0,1,-2.87863,-6.22263)">
                <circle cx="27.865" cy="67.142" r="15.131" style="fill:rgb(193,193,194);"/>
                <clipPath id="_clip4">
                    <circle cx="27.865" cy="67.142" r="15.131"/>
                </clipPath>
                <g clip-path="url(#_clip4)">
                    <g transform="matrix(1.36382,0,0,1.11163,-9.69783,2.16712)">
                        <ellipse cx="17.352" cy="53.504" rx="10.136" ry="10.27" style="fill:rgb(117,117,117);"/>
                    </g>
                    <g transform="matrix(0.400671,0,0,0.410552,36.0437,40.9589)">
                        <ellipse cx="17.352" cy="53.504" rx="10.136" ry="10.27" style="fill:white;"/>
                    </g>
                </g>
            </g>
            <g transform="matrix(1,0,0,0.150076,0,52.7389)">
                <path d="M27.488,58.219C27.488,56.17 27.252,54.507 26.961,54.507L22.864,54.507C22.573,54.507 22.336,56.17 22.336,58.219L22.336,65.641C22.336,67.689 22.573,69.352 22.864,69.352L26.961,69.352C27.252,69.352 27.488,67.689 27.488,65.641L27.488,58.219Z" style="fill:rgb(64,64,65);"/>
            </g>
        </g>
        <g transform="matrix(3.16141,-1.46945,1.035,2.48373,219.281,148.841)">
            <path d="M29.676,26.896C33.638,26.896 41.563,46.173 41.563,46.173L17.788,46.173C17.788,46.173 25.713,26.896 29.676,26.896Z" style="fill:white;"/>
        </g>
        <g transform="matrix(1.38972,-0.555338,0.39115,1.09182,293.801,168.16)">
            <path d="M29.676,26.896C33.638,26.896 28.583,47.724 28.583,47.724L11.167,60.176C11.167,60.176 25.713,26.896 29.676,26.896Z" style="fill:rgb(255,204,5);"/>
        </g>
        <g transform="matrix(3.07443,1.6626,-1.17105,2.4154,468.22,56.3802)">
            <path d="M29.676,26.896C33.638,26.896 41.563,46.173 41.563,46.173L17.788,46.173C17.788,46.173 25.713,26.896 29.676,26.896Z" style="fill:white;"/>
        </g>
        <g transform="matrix(1.32257,0.715224,-0.503765,1.03906,497.862,131.809)">
            <path d="M29.676,26.896C33.638,26.896 49.223,58.366 49.223,58.366L29.555,48.571C29.555,48.571 25.713,26.896 29.676,26.896Z" style="fill:rgb(86,131,197);"/>
        </g>
        <g transform="matrix(1.3348,-1.0504,1.17655,1.4951,303.436,196.1)">
            <rect x="38.843" y="46.101" width="17.123" height="3.899" style="fill:rgb(86,131,197);"/>
        </g>
        <g transform="matrix(1.3348,-1.0504,1.94323,2.46937,268.091,168.072)">
            <rect x="38.843" y="46.101" width="17.123" height="3.899" style="fill:rgb(86,131,197);"/>
        </g>
        <g transform="matrix(1.70816,0,0,1.70816,391.049,175.422)">
            <path d="M74.263,80.636L81.464,88.011L67.062,88.011L74.263,80.636Z" style="fill:rgb(211,132,139);"/>
        </g>
        <g transform="matrix(0.669806,0,0,-0.762589,382.898,375.455)">
            <path d="M74.263,80.636C76.663,80.636 82.664,86.782 81.464,88.011C80.264,89.24 68.262,89.24 67.062,88.011C65.862,86.782 71.863,80.636 74.263,80.636Z" style="fill:rgb(134,130,118);"/>
        </g>
    </g>
    <g transform="matrix(0.669073,0,0,0.669073,-31.5494,-29.6385)">
        <path d="M296.046,431.276C305.227,431.276 312.681,438.73 312.681,447.911C312.681,457.092 306.253,456.732 297.072,456.732C287.891,456.732 279.41,457.092 279.41,447.911C279.41,438.73 286.864,431.276 296.046,431.276Z" style="fill:rgb(117,117,117);"/>
    </g>
    <g transform="matrix(0.669073,0,0,0.669073,-63.6066,-29.6385)">
        <path d="M296.046,431.276C305.227,431.276 312.681,438.73 312.681,447.911C312.681,457.092 306.253,456.732 297.072,456.732C287.891,456.732 279.41,457.092 279.41,447.911C279.41,438.73 286.864,431.276 296.046,431.276Z" style="fill:rgb(117,117,117);"/>
    </g>
    <g transform="matrix(1,0,0,1,-200.408,-173.042)">
        <path d="M256.202,301.305L209.179,268.812" style="fill:none;stroke:rgb(193,193,194);stroke-width:1px;"/>
    </g>
    <g transform="matrix(1,0,0,1,-200.408,-173.042)">
        <path d="M256.202,312.814L200.908,312.814" style="fill:none;stroke:rgb(193,193,194);stroke-width:1px;"/>
    </g>
    <g transform="matrix(1,0,0,1,-200.408,-173.042)">
        <path d="M263.077,323.408L216.148,356.919" style="fill:none;stroke:rgb(193,193,194);stroke-width:1px;"/>
    </g>
    <g transform="matrix(1,0,0,1,-200.408,-173.042)">
        <path d="M453.908,300L498.644,267.637" style="fill:none;stroke:rgb(193,193,194);stroke-width:1px;"/>
    </g>
    <g transform="matrix(1,0,0,1,-200.408,-173.042)">
        <path d="M446.88,312.473L503.601,313.665" style="fill:none;stroke:rgb(193,193,194);stroke-width:1px;"/>
    </g>
    <g transform="matrix(1,0,0,1,-195.647,-174.581)">
        <path d="M438.854,318.926L485.766,352.396" style="fill:none;stroke:rgb(193,193,194);stroke-width:1px;"/>
    </g>
</svg>
