<?xml version="1.0" encoding="UTF-8" standalone="no"?><!DOCTYPE svg PUBLIC "-//W3C//DTD SVG 1.1//EN" "http://www.w3.org/Graphics/SVG/1.1/DTD/svg11.dtd"><svg width="100%" height="100%" viewBox="0 0 9000 6000" version="1.1" xmlns="http://www.w3.org/2000/svg" xmlns:xlink="http://www.w3.org/1999/xlink" xml:space="preserve" xmlns:serif="http://www.serif.com/" style="fill-rule:evenodd;clip-rule:evenodd;stroke-miterlimit:10;"><g id="图层-2" serif:id="图层 2"><rect x="0" y="0" width="9000" height="6000" style="fill:#83b3f2;"/><rect x="0" y="0" width="9000" height="6000" style="fill:none;stroke:#231815;stroke-width:4.17px;"/><g><path d="M3947.36,3010.98c5.014,-41.278 -24.427,-78.862 -65.705,-83.876l-353.713,-42.969c-41.278,-5.014 -78.862,24.427 -83.876,65.705l-18.171,149.582c-5.014,41.278 24.427,78.862 65.705,83.876l353.712,42.969c41.279,5.014 78.862,-24.427 83.877,-65.705l18.171,-149.582Z" style="fill:#fff;"/><g><path d="M3538.22,2989.46c44.864,5.45 76.863,46.298 71.413,91.162c-5.45,44.864 -46.298,76.862 -91.162,71.412c-44.864,-5.45 -76.862,-46.298 -71.412,-91.161c5.45,-44.864 46.298,-76.863 91.161,-71.413Z" style="fill:#c1c1c2;"/><clipPath id="_clip1"><path d="M3538.22,2989.46c44.864,5.45 76.863,46.298 71.413,91.162c-5.45,44.864 -46.298,76.862 -91.162,71.412c-44.864,-5.45 -76.862,-46.298 -71.412,-91.161c5.45,-44.864 46.298,-76.863 91.161,-71.413Z"/></clipPath><g clip-path="url(#_clip1)"><path d="M3464.73,2970.81c40.986,4.979 70.923,36.504 66.811,70.354c-4.112,33.851 -40.726,57.291 -81.712,52.313c-40.986,-4.979 -70.923,-36.504 -66.811,-70.355c4.113,-33.851 40.726,-57.291 81.712,-52.312Z" style="fill:#757575;"/><path d="M3615.14,3035.32c12.041,1.463 20.584,12.801 19.065,25.302c-1.518,12.502 -12.527,21.465 -24.568,20.002c-12.041,-1.463 -20.584,-12.8 -19.065,-25.302c1.518,-12.502 12.527,-21.464 24.568,-20.002Z" style="fill:#fff;"/></g><path d="M3538.22,2989.46c44.864,5.45 76.863,46.298 71.413,91.162c-5.45,44.864 -46.298,76.862 -91.162,71.412c-44.864,-5.45 -76.862,-46.298 -71.412,-91.161c5.45,-44.864 46.298,-76.863 91.161,-71.413Z" style="fill:#c1c1c2;"/><clipPath id="_clip2"><path d="M3538.22,2989.46c44.864,5.45 76.863,46.298 71.413,91.162c-5.45,44.864 -46.298,76.862 -91.162,71.412c-44.864,-5.45 -76.862,-46.298 -71.412,-91.161c5.45,-44.864 46.298,-76.863 91.161,-71.413Z"/></clipPath><g clip-path="url(#_clip2)"><path d="M3464.73,2970.81c40.986,4.979 70.923,36.504 66.811,70.354c-4.112,33.851 -40.726,57.291 -81.712,52.313c-40.986,-4.979 -70.923,-36.504 -66.811,-70.355c4.113,-33.851 40.726,-57.291 81.712,-52.312Z" style="fill:#757575;"/><path d="M3615.14,3035.32c12.041,1.463 20.584,12.801 19.065,25.302c-1.518,12.502 -12.527,21.465 -24.568,20.002c-12.041,-1.463 -20.584,-12.8 -19.065,-25.302c1.518,-12.502 12.527,-21.464 24.568,-20.002Z" style="fill:#fff;"/></g><path d="M3545.13,3044.86c0.464,-3.818 -2.26,-7.295 -6.078,-7.759l-13.837,-1.681c-3.819,-0.464 -7.295,2.26 -7.759,6.078l-8.007,65.912c-0.464,3.819 2.26,7.295 6.078,7.759l13.837,1.681c3.819,0.464 7.295,-2.26 7.759,-6.078l8.007,-65.912Z" style="fill:#5683c5;"/></g><g><path d="M3783.03,3019.2c44.863,5.45 76.862,46.298 71.412,91.162c-5.45,44.863 -46.298,76.862 -91.162,71.412c-44.863,-5.45 -76.862,-46.298 -71.412,-91.162c5.45,-44.863 46.298,-76.862 91.162,-71.412Z" style="fill:#c1c1c2;"/><clipPath id="_clip3"><path d="M3783.03,3019.2c44.863,5.45 76.862,46.298 71.412,91.162c-5.45,44.863 -46.298,76.862 -91.162,71.412c-44.863,-5.45 -76.862,-46.298 -71.412,-91.162c5.45,-44.863 46.298,-76.862 91.162,-71.412Z"/></clipPath><g clip-path="url(#_clip3)"><path d="M3709.54,3000.55c40.986,4.979 70.922,36.504 66.81,70.355c-4.112,33.851 -40.726,57.291 -81.712,52.312c-40.986,-4.979 -70.922,-36.504 -66.81,-70.354c4.112,-33.851 40.726,-57.292 81.712,-52.313Z" style="fill:#757575;"/><path d="M3859.95,3065.06c12.041,1.463 20.583,12.8 19.065,25.302c-1.519,12.502 -12.528,21.464 -24.569,20.002c-12.041,-1.463 -20.584,-12.801 -19.065,-25.303c1.519,-12.502 12.528,-21.464 24.569,-20.001Z" style="fill:#fff;"/></g><path d="M3783.03,3019.2c44.863,5.45 76.862,46.298 71.412,91.162c-5.45,44.863 -46.298,76.862 -91.162,71.412c-44.863,-5.45 -76.862,-46.298 -71.412,-91.162c5.45,-44.863 46.298,-76.862 91.162,-71.412Z" style="fill:#c1c1c2;"/><clipPath id="_clip4"><path d="M3783.03,3019.2c44.863,5.45 76.862,46.298 71.412,91.162c-5.45,44.863 -46.298,76.862 -91.162,71.412c-44.863,-5.45 -76.862,-46.298 -71.412,-91.162c5.45,-44.863 46.298,-76.862 91.162,-71.412Z"/></clipPath><g clip-path="url(#_clip4)"><path d="M3709.54,3000.55c40.986,4.979 70.922,36.504 66.81,70.355c-4.112,33.851 -40.726,57.291 -81.712,52.312c-40.986,-4.979 -70.922,-36.504 -66.81,-70.354c4.112,-33.851 40.726,-57.292 81.712,-52.313Z" style="fill:#757575;"/><path d="M3859.95,3065.06c12.041,1.463 20.583,12.8 19.065,25.302c-1.519,12.502 -12.528,21.464 -24.569,20.002c-12.041,-1.463 -20.584,-12.801 -19.065,-25.303c1.519,-12.502 12.528,-21.464 24.569,-20.001Z" style="fill:#fff;"/></g><path d="M3789.94,3074.6c0.464,-3.819 -2.259,-7.295 -6.078,-7.759l-13.837,-1.681c-3.818,-0.464 -7.295,2.259 -7.759,6.078l-8.007,65.912c-0.464,3.818 2.26,7.295 6.078,7.759l13.838,1.681c3.818,0.463 7.295,-2.26 7.759,-6.079l8.006,-65.911Z" style="fill:#404041;"/></g><path d="M3594.76,2810.89c27.096,3.292 68.708,113.432 68.708,113.432l-162.575,-19.75c0,0 66.772,-96.974 93.867,-93.682Z" style="fill:#fff;"/><path d="M3592.31,2831.07c11.656,1.416 29.557,48.796 29.557,48.796l-69.937,-8.495c0,-0 28.724,-41.717 40.38,-40.301Z" style="fill:#ffcc05;"/><path d="M3807.41,2837.26c27.095,3.292 68.707,113.432 68.707,113.432l-162.574,-19.75c-0,0 66.771,-96.974 93.867,-93.682Z" style="fill:#fff;"/><path d="M3804.96,2857.44c11.656,1.416 29.556,48.796 29.556,48.796l-69.937,-8.495c0,-0 28.724,-41.717 40.381,-40.301Z" style="fill:#5683c5;"/><path d="M3677.21,2944.69l-49.574,30.111l7.68,12.645l49.574,-30.111l-7.68,-12.645Z" style="fill:#5683c5;"/><path d="M3673.15,2978.12l-49.574,30.111l12.685,20.885l49.574,-30.111l-12.685,-20.885Z" style="fill:#5683c5;"/><path d="M3847.59,3166.81l33.872,44.32l-77.371,-9.399l43.499,-34.921Z" style="fill:#d3848b;"/><path d="M3626.51,3129.49c3.183,0.387 10.013,10.632 8.196,12.295c-1.816,1.662 -17.731,-0.271 -19.097,-2.32c-1.366,-2.049 7.718,-10.361 10.901,-9.975Z" style="fill:#868276;"/></g><path d="M4077.72,3421.84c-23.171,-0 -45.521,3.458 -66.612,9.82c-40.884,-152.662 -180.163,-265.087 -345.721,-265.087c-12.429,-0 -24.704,0.646 -36.804,1.879c-34.096,-84.525 -116.842,-144.204 -213.58,-144.204c-23.166,-0 -45.52,3.458 -66.612,9.825c-40.883,-152.667 -180.163,-265.092 -345.721,-265.092c-130.167,0 -244.092,69.496 -306.725,173.4c-0.404,-0.004 -0.8,-0.033 -1.204,-0.033c-54.729,-0 -104.696,20.287 -142.892,53.692c-23.483,-7.305 -48.45,-11.242 -74.337,-11.242c-46.734,-0 -90.446,12.858 -127.863,35.179c-64.3,-95.275 -173.225,-157.946 -296.821,-157.946c-130.162,0 -244.091,69.492 -306.725,173.4c-0.404,-0.004 -0.795,-0.033 -1.2,-0.033c-54.733,-0 -104.691,20.283 -142.891,53.692c-23.488,-7.305 -48.454,-11.242 -74.342,-11.242c-138.062,-0 -249.987,111.925 -249.987,249.987c-0,6.634 0.316,13.188 0.825,19.688c-106.821,21.208 -189.121,110.458 -199.834,220.696c-66.871,44.866 -110.896,121.15 -110.896,207.729c0,127.717 95.775,233.046 219.417,248.125l0,1.862l1728.5,0l0,-1.454c8.429,0.934 16.983,1.454 25.658,1.454c96.496,0 179.075,-59.375 213.33,-143.566l897.379,-0l-0,-1.454c8.425,0.933 16.979,1.454 25.658,1.454c127.171,-0 230.267,-103.092 230.267,-230.263c-0,-127.175 -103.096,-230.266 -230.267,-230.266" style="fill:#eee;fill-rule:nonzero;"/><path d="M7641.45,4270.72c764.537,-293.854 1066.26,-431.141 1136.37,-487.012c13.516,-10.779 73.866,-62.717 146.1,-54.113c33.675,4.013 59.666,19.959 76.083,32.471l-0,503.246c-452.85,1.804 -905.7,3.604 -1358.55,5.408" style="fill:#ae937a;fill-rule:nonzero;"/><path d="M7241.02,3875.7c318.962,18.321 534.737,-13.663 676.408,-48.7c102.775,-25.417 207.529,-43.746 308.442,-75.759c140.233,-44.487 202.591,-78.704 292.208,-64.937c79.283,12.183 98.283,56.171 205.629,119.05c99.179,58.096 195.617,89.912 276.296,108.225l0,265.154l-1737.41,0c-7.192,-101.017 -14.38,-202.025 -21.571,-303.033" style="fill:#c5a586;fill-rule:nonzero;"/><path d="M1904.17,3179.17c-791.892,34.846 -1446.8,136.421 -1904.17,225l-0,2595.83l9000,0l0,-1945.83c-1719.98,-328.559 -3175.11,-549.596 -4295.83,-700c-825.534,-110.788 -1497.33,-186.971 -2265.66,-186.967c-172.291,0.004 -349.525,3.833 -534.337,11.967Z" style="fill:url(#_Linear5);fill-rule:nonzero;"/><g opacity="0.8"><path d="M7478.67,3124.09c11.967,-16.191 56.359,29.53 147.917,29.167c89.612,-0.354 110.525,-44.4 218.75,-45.833c65.441,-0.867 100.091,14.679 112.5,20.833c4.05,2.004 97.2,49.417 87.5,104.167c-5.296,29.875 -39.383,51.583 -66.667,58.333c-38.066,9.421 -53.037,-12.708 -106.25,-10.417c-32.908,1.417 -41.354,10.492 -77.083,18.75c-0,0 -71.621,16.559 -141.667,0c-112.929,-26.691 -192.733,-151.008 -175,-175" style="fill:#fff;fill-rule:nonzero;"/></g><g opacity="0.8"><path d="M2820.83,2101.29c-11.087,28.146 2.604,54.125 5.555,59.721c2.041,3.871 22.879,43.517 48.612,37.5c18.129,-4.238 32.558,-26.058 29.167,-51.388c2.912,3.821 19.158,24.525 37.5,22.221c24.312,-3.05 40.65,-45.066 30.554,-73.608c-12.163,-34.396 -61.138,-44.788 -94.442,-37.5c-6.691,1.462 -43.754,9.567 -56.946,43.054" style="fill:#fff;fill-rule:nonzero;"/></g><g opacity="0.8"><path d="M4381.06,3145.83c-27.208,-10.229 -137.55,-51.704 -146.104,-135.283c-3.334,-32.571 9.146,-68.025 32.466,-91.992c58.242,-59.842 170,-33.533 243.505,-16.233c77.67,18.283 122.35,42.546 183.987,70.345c70.183,31.663 173.517,72.946 308.438,108.226c-72.146,-3.605 -144.3,-7.213 -216.446,-10.821c17.908,18.725 55.475,52.716 113.633,70.345c34.558,10.48 65.104,11.755 86.583,10.826c-179.137,-8.396 -315.679,0.337 -411.258,10.82c-44.096,4.838 -114.633,13.9 -194.804,-16.233" style="fill:#fff;fill-rule:nonzero;"/></g><g opacity="0.8"><path d="M3350.33,1954.71c-10.254,-20.271 32.013,-76.721 75.759,-81.167c50.571,-5.146 110.279,58.475 140.691,162.334c-30.075,-28.646 -75.358,-61.896 -135.283,-70.346c-43.204,-6.092 -73.9,3.546 -81.167,-10.821" style="fill:#fff;fill-rule:nonzero;"/></g><g opacity="0.8"><path d="M8404.09,1498.84c-10.258,-20.271 32.013,-76.721 75.759,-81.166c50.566,-5.146 110.275,58.475 140.691,162.333c-30.075,-28.646 -75.358,-61.896 -135.283,-70.342c-43.208,-6.096 -73.9,3.542 -81.167,-10.825" style="fill:#fff;fill-rule:nonzero;"/></g><g opacity="0.8"><path d="M3583.01,2512.07c2.45,-6.354 15.887,-38.459 48.7,-43.292c18.746,-2.758 41.204,3.767 54.117,21.646c15.745,21.812 9.2,49.304 -0,64.937c-18.392,31.238 -66.517,47.592 -91.992,27.054c-20.046,-16.158 -18.904,-49.375 -10.825,-70.345" style="fill:#fff;fill-rule:nonzero;"/></g><g opacity="0.8"><path d="M8056.3,3271.61c-7.971,0 -15.658,1.413 -22.913,4.013c-14.058,-62.321 -61.962,-108.217 -118.904,-108.217c-44.771,0 -83.954,28.371 -105.491,70.783c-0.142,0 -0.28,-0.008 -0.417,-0.008c-18.825,0 -36.008,8.279 -49.146,21.913c-8.079,-2.98 -16.662,-4.584 -25.571,-4.584c-47.483,0 -85.979,45.692 -85.979,102.05c0,52.138 32.942,95.138 75.467,101.292l-0,0.762l324.129,0l-0,-0.595c2.896,0.379 5.837,0.595 8.825,0.595c43.737,0 79.196,-42.083 79.196,-94c-0,-51.916 -35.459,-94.004 -79.196,-94.004" style="fill:#eee;fill-rule:nonzero;"/></g><g opacity="0.8"><path d="M7820.08,3317.95c9.767,0 19.188,1.604 28.08,4.559c17.237,-70.821 75.962,-122.975 145.762,-122.975c54.879,-0 102.908,32.237 129.317,80.441c0.166,-0.004 0.333,-0.016 0.504,-0.016c23.075,-0 44.142,9.412 60.246,24.904c9.9,-3.388 20.425,-5.213 31.337,-5.213c58.213,0 105.396,51.921 105.396,115.967c0,59.246 -40.375,108.113 -92.504,115.104l-0,0.863l-397.321,-0l0,-0.675c-3.554,0.437 -7.158,0.675 -10.817,0.675c-53.616,-0 -97.083,-47.821 -97.083,-106.813c0,-58.996 43.467,-106.821 97.083,-106.821" style="fill:#fff;fill-rule:nonzero;"/></g><g opacity="0.31"><path d="M45.833,6000c140.025,-357.896 406.425,-885.479 925,-1295.83c1276.76,-1010.32 3260.7,-660.017 4733.33,-400c478.25,84.446 1478.95,294.387 2925,391.666c158.921,10.688 289.846,17.78 376.221,22.117c5.15,428.738 10.3,857.479 15.445,1286.22c-2991.67,-1.388 -5983.33,-2.779 -8975,-4.167Z" style="fill:url(#_Linear6);fill-rule:nonzero;"/></g><g opacity="0.31"><path d="M2562.5,6001.57c100.763,-223.321 292.458,-552.521 665.625,-808.575c918.742,-630.413 2346.37,-411.838 3406.06,-249.592c231.854,35.5 634.333,106.538 1190.49,167.679c438.704,48.229 806.454,70.408 914.317,76.713c110.016,6.433 202.795,10.85 270.729,13.8c-4.629,266.6 -9.258,533.2 -13.888,799.795c-2144.45,0.063 -4288.89,0.117 -6433.33,0.18Z" style="fill:url(#_Linear7);fill-rule:nonzero;"/></g><g opacity="0.8"><path d="M5309.56,1482.36c-13.183,28.091 3.096,54.021 6.604,59.604c2.425,3.862 27.192,43.433 57.788,37.429c21.55,-4.233 38.708,-26.008 34.67,-51.287c3.463,3.808 22.78,24.475 44.584,22.175c28.904,-3.046 48.325,-44.98 36.325,-73.467c-14.459,-34.325 -72.679,-44.696 -112.275,-37.425c-7.959,1.462 -52.017,9.55 -67.696,42.971" style="fill:#fff;fill-rule:nonzero;"/></g></g><g><path d="M19.269,3368.93c-0,-0 1521.43,-223.778 2287.91,-230.897c806.898,-7.494 1705.42,90.459 2553.47,185.932c877.902,98.832 2020.84,294.872 2713.94,407.065c483.367,78.242 1444.67,266.091 1444.67,266.091l20.833,1973.71l-9020.83,0l-0,-2601.9Z" style="fill:#fdc63c;"/><path d="M0,6001.57c0,-0 816.245,-1483.31 1875.29,-1787.96c1766.16,-508.075 3996.92,168.952 4840.24,255.348c931.148,95.392 2294.19,301.881 2294.19,301.881l11.112,1229.17l-9020.83,1.567Z" style="fill:#ffd261;"/><path d="M2562.5,6000c0,0 468.151,-964.565 1349.59,-1116.95c881.436,-152.388 2108.62,69.301 3777.71,196.402c1669.09,127.101 1319.92,82.849 1319.92,82.849l-9.721,837.701l-6437.5,0Z" style="fill:#ffe091;"/></g><defs><linearGradient id="_Linear5" x1="0" y1="0" x2="1" y2="0" gradientUnits="userSpaceOnUse" gradientTransform="matrix(0,-2832.8,2832.8,-0,4500,6000)"><stop offset="0" style="stop-color:#3dcbbd;stop-opacity:1"/><stop offset="0.49" style="stop-color:#26d574;stop-opacity:1"/><stop offset="1" style="stop-color:#30b895;stop-opacity:1"/></linearGradient><linearGradient id="_Linear6" x1="0" y1="0" x2="1" y2="0" gradientUnits="userSpaceOnUse" gradientTransform="matrix(5452.54,0,0,5452.54,1775.92,4770.83)"><stop offset="0" style="stop-color:#df0;stop-opacity:1"/><stop offset="1" style="stop-color:#a6a6a6;stop-opacity:1"/></linearGradient><linearGradient id="_Linear7" x1="0" y1="0" x2="1" y2="0" gradientUnits="userSpaceOnUse" gradientTransform="matrix(4187.96,232.09,-232.09,4187.96,3789.6,5386.2)"><stop offset="0" style="stop-color:#ffca43;stop-opacity:1"/><stop offset="1" style="stop-color:#30b895;stop-opacity:1"/></linearGradient></defs></svg>