<?xml version="1.0" encoding="UTF-8" standalone="no"?>
<!DOCTYPE svg PUBLIC "-//W3C//DTD SVG 1.1//EN" "http://www.w3.org/Graphics/SVG/1.1/DTD/svg11.dtd">
<svg width="100%" height="100%" viewBox="0 0 100 100" version="1.1" xmlns="http://www.w3.org/2000/svg" xmlns:xlink="http://www.w3.org/1999/xlink" xml:space="preserve" xmlns:serif="http://www.serif.com/" style="fill-rule:evenodd;clip-rule:evenodd;stroke-linejoin:round;stroke-miterlimit:2;">
    <g transform="matrix(1,0,0,0.982692,0,0)">
        <rect x="-0" y="0" width="100" height="101.761" style="fill:rgb(255,204,5);"/>
    </g>
    <g transform="matrix(1,0,0,0.982692,0,0)">
        <path d="M100,25.44C100,11.399 88.798,0 75,0L25,0C11.202,0 -0,11.399 -0,25.44L-0,76.321C-0,90.362 11.202,101.761 25,101.761L75,101.761C88.798,101.761 100,90.362 100,76.321L100,25.44Z" style="fill:rgb(255,204,5);"/>
    </g>
    <g transform="matrix(0.793785,0,0,0.634489,8.54517,13.4217)">
        <path d="M97.136,49.902C97.136,40.686 91.155,33.203 83.788,33.203L20.66,33.203C13.293,33.203 7.312,40.686 7.312,49.902L7.312,83.301C7.312,92.517 13.293,100 20.66,100L83.788,100C91.155,100 97.136,92.517 97.136,83.301L97.136,49.902Z" style="fill:white;"/>
    </g>
    <g transform="matrix(0.761066,0,0,0.761066,9.15106,14.1709)">
        <g transform="matrix(1,0,0,1,-2.87863,-6.22263)">
            <circle cx="27.865" cy="67.142" r="15.131" style="fill:rgb(193,193,194);"/>
            <clipPath id="_clip1">
                <circle cx="27.865" cy="67.142" r="15.131"/>
            </clipPath>
            <g clip-path="url(#_clip1)">
                <g transform="matrix(1.36382,0,0,1.11163,-9.69783,2.16712)">
                    <ellipse cx="17.352" cy="53.504" rx="10.136" ry="10.27" style="fill:rgb(117,117,117);"/>
                </g>
                <g transform="matrix(0.400671,0,0,0.410552,36.0437,40.9589)">
                    <ellipse cx="17.352" cy="53.504" rx="10.136" ry="10.27" style="fill:white;"/>
                </g>
            </g>
        </g>
        <g transform="matrix(1,0,0,1,-2.87863,-6.22263)">
            <circle cx="27.865" cy="67.142" r="15.131" style="fill:rgb(193,193,194);"/>
            <clipPath id="_clip2">
                <circle cx="27.865" cy="67.142" r="15.131"/>
            </clipPath>
            <g clip-path="url(#_clip2)">
                <g transform="matrix(1.36382,0,0,1.11163,-9.69783,2.16712)">
                    <ellipse cx="17.352" cy="53.504" rx="10.136" ry="10.27" style="fill:rgb(117,117,117);"/>
                </g>
                <g transform="matrix(0.400671,0,0,0.410552,36.0437,40.9589)">
                    <ellipse cx="17.352" cy="53.504" rx="10.136" ry="10.27" style="fill:white;"/>
                </g>
            </g>
        </g>
        <path d="M27.488,55.795C27.488,55.084 26.911,54.507 26.2,54.507L23.624,54.507C22.914,54.507 22.336,55.084 22.336,55.795L22.336,68.064C22.336,68.775 22.914,69.352 23.624,69.352L26.2,69.352C26.911,69.352 27.488,68.775 27.488,68.064L27.488,55.795Z" style="fill:rgb(86,131,197);"/>
    </g>
    <g transform="matrix(0.761066,0,0,0.761066,43.8332,14.1709)">
        <g transform="matrix(1,0,0,1,-2.87863,-6.22263)">
            <circle cx="27.865" cy="67.142" r="15.131" style="fill:rgb(193,193,194);"/>
            <clipPath id="_clip3">
                <circle cx="27.865" cy="67.142" r="15.131"/>
            </clipPath>
            <g clip-path="url(#_clip3)">
                <g transform="matrix(1.36382,0,0,1.11163,-9.69783,2.16712)">
                    <ellipse cx="17.352" cy="53.504" rx="10.136" ry="10.27" style="fill:rgb(117,117,117);"/>
                </g>
                <g transform="matrix(0.400671,0,0,0.410552,36.0437,40.9589)">
                    <ellipse cx="17.352" cy="53.504" rx="10.136" ry="10.27" style="fill:white;"/>
                </g>
            </g>
        </g>
        <g transform="matrix(1,0,0,1,-2.87863,-6.22263)">
            <circle cx="27.865" cy="67.142" r="15.131" style="fill:rgb(193,193,194);"/>
            <clipPath id="_clip4">
                <circle cx="27.865" cy="67.142" r="15.131"/>
            </clipPath>
            <g clip-path="url(#_clip4)">
                <g transform="matrix(1.36382,0,0,1.11163,-9.69783,2.16712)">
                    <ellipse cx="17.352" cy="53.504" rx="10.136" ry="10.27" style="fill:rgb(117,117,117);"/>
                </g>
                <g transform="matrix(0.400671,0,0,0.410552,36.0437,40.9589)">
                    <ellipse cx="17.352" cy="53.504" rx="10.136" ry="10.27" style="fill:white;"/>
                </g>
            </g>
        </g>
        <path d="M27.488,55.795C27.488,55.084 26.911,54.507 26.2,54.507L23.624,54.507C22.914,54.507 22.336,55.084 22.336,55.795L22.336,68.064C22.336,68.775 22.914,69.352 23.624,69.352L26.2,69.352C26.911,69.352 27.488,68.775 27.488,68.064L27.488,55.795Z" style="fill:rgb(64,64,65);"/>
    </g>
    <g transform="matrix(0.968719,0,0,0.761066,4.28391,2.65988)">
        <path d="M29.676,26.896C33.638,26.896 41.563,46.173 41.563,46.173L17.788,46.173C17.788,46.173 25.713,26.896 29.676,26.896Z" style="fill:white;"/>
    </g>
    <g transform="matrix(0.416727,0,0,0.327398,20.6647,17.1823)">
        <path d="M29.676,26.896C33.638,26.896 41.563,46.173 41.563,46.173L17.788,46.173C17.788,46.173 25.713,26.896 29.676,26.896Z" style="fill:rgb(255,204,5);"/>
    </g>
    <g transform="matrix(0.968719,0,0,0.761066,34.4191,2.73546)">
        <path d="M29.676,26.896C33.638,26.896 41.563,46.173 41.563,46.173L17.788,46.173C17.788,46.173 25.713,26.896 29.676,26.896Z" style="fill:white;"/>
    </g>
    <g transform="matrix(0.416727,0,0,0.327398,50.7999,17.2578)">
        <path d="M29.676,26.896C33.638,26.896 41.563,46.173 41.563,46.173L17.788,46.173C17.788,46.173 25.713,26.896 29.676,26.896Z" style="fill:rgb(86,131,197);"/>
    </g>
    <g transform="matrix(0.374358,-0.294595,0.329975,0.419317,10.6489,37.5667)">
        <rect x="38.843" y="46.101" width="17.123" height="3.899" style="fill:rgb(86,131,197);"/>
    </g>
    <g transform="matrix(0.374358,-0.294595,0.544999,0.69256,0.736157,29.7059)">
        <rect x="38.843" y="46.101" width="17.123" height="3.899" style="fill:rgb(86,131,197);"/>
    </g>
    <g transform="matrix(0.761066,0,0,0.761066,17.8462,7.16224)">
        <path d="M74.263,80.636L81.464,88.011L67.062,88.011L74.263,80.636Z" style="fill:rgb(211,132,139);"/>
    </g>
    <g transform="matrix(0.187854,0,0,0.213876,28.9176,49.8243)">
        <path d="M74.263,80.636C76.663,80.636 82.664,86.782 81.464,88.011C80.264,89.24 68.262,89.24 67.062,88.011C65.862,86.782 71.863,80.636 74.263,80.636Z" style="fill:rgb(134,130,118);"/>
    </g>
</svg>
